<svg xmlns="http://www.w3.org/2000/svg" viewBox="0 0 341 1257" width="341" height="1257">
	<style>
		tspan { white-space:pre }
		.shp0 { fill: #000000 } 
		.txt1 { font-size: 13px;fill: #000000;font-weight: 400;font-family: "LiberationSans", "Liberation Sans" } 
		.txt2 { font-size: 94px;fill: #14b014;font-weight: 700;font-family: "DejaVuSans-Bold", "DejaVu Sans" } 
	</style>
	<g id="Layer">
		<path id="Layer" class="shp0" d="M168.5 1.8C157.1 8.8 140.4 43.6 120.3 102.5L113.8 121.5L114 345.2L114.1 568.8L101.7 584.7C40.9 662.5 5 721.1 5 742.8C5 747.8 7.7 752.6 11.3 754.2C16.1 756.2 30.8 755.6 42 753C59.8 748.8 66.4 745.8 90.5 731.1L113.5 717.1L114 729.8L114.5 742.5L129.7 742.8L144.8 743.1L132.5 764.5C122.2 782.4 120.5 786 122.1 786C124 786 124 786 122.1 788.7C121 790.3 118.2 799.8 115.6 810.5C102.5 865.4 99.1 898.7 103.3 929C110.4 980.2 131.5 1087.6 159.6 1216.4C167.6 1253 169.8 1261 171.9 1261C175 1261 175.2 1260 195.4 1167C220.1 1053.2 234.2 984 242.7 935C247 910.4 247.3 907.2 247.4 891C247.4 875.6 247.1 872.1 244.7 861.5C239.5 838.2 225 795.7 219.9 788.7L217.9 786L221.6 786C224.1 786 225.1 785.6 224.7 784.8C224.5 784.1 219 774.8 212.6 764.2C206.2 753.6 201 744.5 201 744C201 743.5 207.4 743.4 215.3 743.7L229.7 744.3L230.4 730.9C230.8 723.6 231.3 717.4 231.5 717.2C231.9 716.7 239.9 721.4 262 734.9C275.2 743 280.6 745.7 289 748.4C304.5 753.4 314.8 755.2 325.2 754.8C333.9 754.5 334.3 754.4 337.1 751.2C339.6 748.5 340 747.1 340 742.4C340 720.7 308.5 668.3 249.8 592.1L231.5 568.5L231 344L230.5 119.5L225.3 103.5C202.6 33.2 185.9 0 173.3 0C172.3 0 170.1 0.8 168.5 1.8Z" />
		<text id=" " style="transform: matrix(1,0,0,1,320,174)" >
			<tspan x="0" y="14.56" class="txt1">		</tspan>
		</text>
		<g id="s e n d ">
			<text id="s" style="transform: matrix(1,0,0,1,141,235)" >
				<tspan x="0" y="0" class="txt2">s</tspan>
			</text>
			<text id="e" style="transform: matrix(1,0,0,1,141,340.28)" >
				<tspan x="0" y="0" class="txt2">e</tspan>
			</text>
			<text id="n" style="transform: matrix(1,0,0,1,141,445.56)" >
				<tspan x="0" y="0" class="txt2">n</tspan>
			</text>
			<text id="d" style="transform: matrix(1,0,0,1,141,550.84)" >
				<tspan x="0" y="0" class="txt2">d</tspan>
			</text>
		</g>
	</g>
</svg>